<svg width="144" height="144" viewBox="0 0 144 144" fill="none" xmlns="http://www.w3.org/2000/svg">
<rect width="144" height="144" rx="48" fill="url(#paint0_linear_612_471)"/>
<path fill-rule="evenodd" clip-rule="evenodd" d="M29.636 64.0604C26.1213 67.5751 26.1213 73.2736 29.636 76.7883L30.113 77.2653C33.6277 80.78 39.3262 80.78 42.8409 77.2653L72.9931 47.1132L85.3494 59.4695C88.8641 62.9842 94.5626 62.9842 98.0773 59.4695L98.5543 58.9925C102.069 55.4778 102.069 49.7793 98.5543 46.2646L79.5905 27.3008C77.94 25.6503 75.808 24.7749 73.6467 24.6745C71.0671 24.4294 68.4019 25.2946 66.4265 27.27L29.636 64.0604Z" fill="white"/>
<path fill-rule="evenodd" clip-rule="evenodd" d="M116.097 79.2244C119.612 75.7097 119.612 70.0112 116.097 66.4965L115.62 66.0195C112.105 62.5048 106.407 62.5048 102.892 66.0195L72.7401 96.1713L60.3842 83.8154C56.8695 80.3007 51.171 80.3007 47.6563 83.8154L47.1793 84.2924C43.6646 87.8071 43.6646 93.5056 47.1793 97.0203L66.1432 115.984C67.7942 117.635 69.927 118.511 72.089 118.611C74.6678 118.855 77.3317 117.99 79.3064 116.015L116.097 79.2244Z" fill="white"/>
<defs>
<linearGradient id="paint0_linear_612_471" x1="-72.72" y1="73.44" x2="74.16" y2="218.88" gradientUnits="userSpaceOnUse">
<stop stop-color="#4899F7"/>
<stop offset="1" stop-color="#2457F5"/>
</linearGradient>
</defs>
</svg>
